<?xml version="1.0" encoding="UTF-8" standalone="no"?>
<!DOCTYPE svg PUBLIC "-//W3C//DTD SVG 1.1//EN" "http://www.w3.org/Graphics/SVG/1.1/DTD/svg11.dtd">
<svg width="100%" height="100%" viewBox="0 0 502 166" version="1.1" xmlns="http://www.w3.org/2000/svg" xmlns:xlink="http://www.w3.org/1999/xlink" xml:space="preserve" xmlns:serif="http://www.serif.com/" style="fill-rule:evenodd;clip-rule:evenodd;stroke-linejoin:round;stroke-miterlimit:2;">
    <g id="OUTSIDE-KEY-FRAME" serif:id="OUTSIDE KEY FRAME" transform="matrix(1,0,0,1,-42.1961,-110.368)">
        <path d="M189.619,244.161C174.485,263.294 151.066,275.579 124.801,275.579C79.21,275.579 42.196,238.565 42.196,192.974C42.196,147.383 79.21,110.368 124.801,110.368C138.466,110.368 151.36,113.693 162.717,119.577C174.013,125.429 183.789,133.812 191.291,143.972L543.677,143.972L543.677,244.161L189.619,244.161ZM184.389,235.814C171.056,254.316 149.325,266.37 124.801,266.37C84.293,266.37 51.405,233.482 51.405,192.974C51.405,152.465 84.293,119.577 124.801,119.577C150.281,119.577 172.746,132.589 185.905,152.32L535.746,152.32L535.746,235.814L184.389,235.814Z" style="fill:url(#_Linear1);"/>
    </g>
    <g transform="matrix(0.384123,0,0,0.50082,-1682.78,-807.877)">
        <path d="M4595.87,1651.71C4600.38,1651.19 4604.97,1650.93 4609.63,1650.93C4612.59,1650.93 4614.06,1651.34 4614.06,1652.14C4614.06,1652.5 4613.74,1652.99 4613.11,1653.62C4612.76,1654.01 4612.42,1654.39 4612.1,1654.78C4622.26,1657.48 4632,1661.61 4641.34,1667.17C4657.1,1676.56 4671.47,1689.84 4684.45,1707.01C4688.57,1706.11 4694.24,1705.66 4701.49,1705.66C4705.15,1705.66 4708.73,1705.8 4712.22,1706.07C4715.71,1706.34 4718.88,1706.74 4721.74,1707.27C4729.97,1708.88 4737.39,1711.7 4744.01,1715.73C4754.03,1721.81 4759.03,1729.45 4759.03,1738.66C4759.03,1744.21 4757.4,1748.75 4754.14,1752.28C4750.87,1755.81 4746.87,1757.58 4742.13,1757.58C4741.69,1757.58 4741.19,1757.53 4740.66,1757.44C4736.54,1757.44 4733.1,1756.35 4730.33,1754.16C4727.56,1751.97 4725.59,1749.22 4724.43,1745.91C4724.25,1745.01 4724.07,1744.1 4723.89,1743.16C4723.71,1742.22 4723.62,1741.35 4723.62,1740.54C4723.62,1739.02 4723.78,1737.77 4724.09,1736.79C4724.4,1735.8 4724.83,1735.31 4725.36,1735.31C4726.08,1735.31 4726.55,1736.2 4726.77,1737.99C4727,1739.78 4727.8,1741.12 4729.19,1742.02C4730.57,1742.91 4732.21,1743.36 4734.08,1743.36C4734.8,1743.36 4735.34,1743.31 4735.69,1743.22C4739.81,1742.42 4741.86,1739.47 4741.86,1734.37C4741.86,1729.45 4739.14,1725.16 4733.68,1721.49C4729.57,1718.72 4724.76,1716.73 4719.26,1715.52C4713.76,1714.32 4708.46,1713.71 4703.36,1713.71C4700.5,1713.71 4697.98,1713.85 4695.79,1714.12C4693.6,1714.38 4691.52,1714.7 4689.55,1715.05C4695.45,1725.34 4700.23,1737.46 4703.9,1751.41C4708.11,1767.33 4710.21,1783.47 4710.21,1799.83C4710.21,1807.79 4709.54,1816.29 4708.19,1825.32C4706.85,1834.35 4705.38,1843.47 4703.77,1852.68C4702.69,1860.46 4702.02,1866.14 4701.76,1869.72C4701.49,1873.3 4701.35,1876.47 4701.35,1879.24C4701.35,1880.67 4700.95,1881.39 4700.15,1881.39C4699.7,1881.39 4699.12,1881.12 4698.4,1880.59C4697.06,1879.42 4695.63,1878.3 4694.11,1877.23C4691.87,1875.62 4689.21,1874.06 4686.13,1872.54C4683.04,1871.02 4680.32,1869.81 4677.94,1868.91C4675.58,1868.02 4673.09,1867.17 4670.5,1866.37C4669.61,1866.1 4669.16,1865.65 4669.16,1865.02C4669.16,1864.31 4669.7,1863.68 4670.77,1863.15C4674.7,1861.18 4677.92,1859.21 4680.43,1857.24C4685.08,1853.58 4688.57,1849.29 4690.89,1844.37C4694.56,1836.23 4696.93,1827.02 4698,1816.73C4698.63,1810.83 4698.94,1801.08 4698.94,1787.49C4698.94,1775.06 4696.57,1761.69 4691.83,1747.38C4688.25,1736.65 4683.91,1726.77 4678.82,1717.74C4668.89,1721.05 4659.93,1725.18 4651.92,1730.14C4643.92,1735.11 4636.79,1741.08 4630.53,1748.05C4620.15,1759.77 4612.78,1772.42 4608.39,1786.02C4607.32,1789.36 4606.44,1792.72 4605.75,1796.1L4605.75,1825.72C4605.75,1827.42 4607.11,1829.3 4609.82,1831.36C4613.45,1834.08 4615.35,1835.57 4615.53,1835.83C4615.71,1836.01 4615.85,1836.27 4615.94,1836.62C4616.03,1836.89 4616.07,1837.11 4616.07,1837.28C4616.07,1838.25 4615.27,1838.73 4613.65,1838.73C4613.4,1838.76 4613,1838.77 4612.45,1838.76C4611.53,1838.81 4610.12,1838.76 4608.24,1838.6C4602.85,1838.18 4598.73,1837.96 4595.87,1837.93C4593.01,1837.96 4588.89,1838.18 4583.5,1838.6C4581.61,1838.76 4580.21,1838.81 4579.29,1838.76C4578.74,1838.77 4578.34,1838.76 4578.09,1838.73C4576.47,1838.73 4575.66,1838.25 4575.66,1837.28C4575.66,1837.11 4575.71,1836.89 4575.8,1836.62C4575.89,1836.27 4576.03,1836.01 4576.21,1835.83C4576.39,1835.57 4578.29,1834.08 4581.91,1831.36C4584.63,1829.3 4585.99,1827.42 4585.99,1825.72L4585.99,1796.1C4585.3,1792.72 4584.41,1789.36 4583.34,1786.02C4578.96,1772.42 4571.59,1759.77 4561.21,1748.05C4554.95,1741.08 4547.82,1735.11 4539.82,1730.14C4531.81,1725.18 4522.85,1721.05 4512.92,1717.74C4507.82,1726.77 4503.49,1736.65 4499.91,1747.38C4495.17,1761.69 4492.8,1775.06 4492.8,1787.49C4492.8,1801.08 4493.11,1810.83 4493.74,1816.73C4494.81,1827.02 4497.18,1836.23 4500.85,1844.37C4503.17,1849.29 4506.66,1853.58 4511.31,1857.24C4513.81,1859.21 4517.03,1861.18 4520.97,1863.15C4522.04,1863.68 4522.58,1864.31 4522.58,1865.02C4522.58,1865.65 4522.13,1866.1 4521.24,1866.37C4518.64,1867.17 4516.16,1868.02 4513.79,1868.91C4511.42,1869.81 4508.69,1871.02 4505.61,1872.54C4502.52,1874.06 4499.86,1875.62 4497.63,1877.23C4496.11,1878.3 4494.68,1879.42 4493.34,1880.59C4492.62,1881.12 4492.04,1881.39 4491.59,1881.39C4490.79,1881.39 4490.38,1880.67 4490.38,1879.24C4490.38,1876.47 4490.25,1873.3 4489.98,1869.72C4489.71,1866.14 4489.04,1860.46 4487.97,1852.68C4486.36,1843.47 4484.89,1834.35 4483.54,1825.32C4482.2,1816.29 4481.53,1807.79 4481.53,1799.83C4481.53,1783.47 4483.63,1767.33 4487.84,1751.41C4491.5,1737.46 4496.29,1725.34 4502.19,1715.05C4500.22,1714.7 4498.14,1714.38 4495.95,1714.12C4493.76,1713.85 4491.23,1713.71 4488.37,1713.71C4483.28,1713.71 4477.98,1714.32 4472.48,1715.52C4466.98,1716.73 4462.17,1718.72 4458.06,1721.49C4452.6,1725.16 4449.87,1729.45 4449.87,1734.37C4449.87,1739.47 4451.93,1742.42 4456.04,1743.22C4456.4,1743.31 4456.94,1743.36 4457.65,1743.36C4459.53,1743.36 4461.16,1742.91 4462.55,1742.02C4463.94,1741.12 4464.74,1739.78 4464.97,1737.99C4465.19,1736.2 4465.66,1735.31 4466.37,1735.31C4466.91,1735.31 4467.33,1735.8 4467.65,1736.79C4467.96,1737.77 4468.12,1739.02 4468.12,1740.54C4468.12,1741.35 4468.03,1742.22 4467.85,1743.16C4467.67,1744.1 4467.49,1745.01 4467.31,1745.91C4466.15,1749.22 4464.18,1751.97 4461.41,1754.16C4458.64,1756.35 4455.19,1757.44 4451.08,1757.44C4450.54,1757.53 4450.05,1757.58 4449.61,1757.58C4444.87,1757.58 4440.86,1755.81 4437.6,1752.28C4434.34,1748.75 4432.7,1744.21 4432.7,1738.66C4432.7,1729.45 4437.71,1721.81 4447.73,1715.73C4454.35,1711.7 4461.77,1708.88 4469.99,1707.27C4472.86,1706.74 4476.03,1706.34 4479.52,1706.07C4483.01,1705.8 4486.58,1705.66 4490.25,1705.66C4497.49,1705.66 4503.17,1706.11 4507.29,1707.01C4520.27,1689.84 4534.64,1676.56 4550.4,1667.17C4559.73,1661.61 4569.48,1657.48 4579.64,1654.78C4579.32,1654.39 4578.98,1654.01 4578.63,1653.62C4577.99,1652.99 4577.68,1652.5 4577.68,1652.14C4577.68,1651.34 4579.15,1650.93 4582.11,1650.93C4586.77,1650.93 4591.36,1651.19 4595.87,1651.71ZM4584.39,1662.73C4572.38,1665.38 4560.45,1670.84 4548.6,1679.11C4541.63,1683.93 4535.99,1688.54 4531.7,1692.92C4527.41,1697.3 4522.85,1703.07 4518.02,1710.23C4525.71,1712.82 4532.73,1715.86 4539.08,1719.35C4544.71,1722.48 4550.48,1726.41 4556.38,1731.15C4562.91,1736.34 4568.54,1741.84 4573.28,1747.65C4577.36,1752.65 4581.6,1758.92 4585.99,1766.48L4585.99,1683.15C4585.99,1673.32 4585.46,1666.51 4584.39,1662.73ZM4607.35,1662.73C4606.28,1666.51 4605.75,1673.32 4605.75,1683.15L4605.75,1766.48C4610.14,1758.92 4614.37,1752.65 4618.45,1747.65C4623.19,1741.84 4628.83,1736.34 4635.36,1731.15C4641.26,1726.41 4647.03,1722.48 4652.66,1719.35C4659.01,1715.86 4666.03,1712.82 4673.72,1710.23C4668.89,1703.07 4664.33,1697.3 4660.04,1692.92C4655.74,1688.54 4650.11,1683.93 4643.14,1679.11C4631.28,1670.84 4619.36,1665.38 4607.35,1662.73Z" style="fill:white;fill-rule:nonzero;"/>
    </g>
    <g transform="matrix(0.26458,0,0,0.318723,168.097,108.813)">
        <g>
            <g transform="matrix(220.33,0,0,220.33,0,0)">
                <path d="M0.369,-0L0.302,-0L0.275,-0.17L0.123,-0.17L0.096,-0L0.031,-0L0.031,-0.002L0.167,-0.766L0.234,-0.766L0.369,-0ZM0.266,-0.23L0.199,-0.644L0.132,-0.23L0.266,-0.23Z" style="fill:white;fill-rule:nonzero;"/>
            </g>
            <g transform="matrix(220.33,0,0,220.33,88.1105,0)">
                <path d="M0.439,-0L0.375,-0L0.375,-0.484C0.375,-0.491 0.377,-0.511 0.382,-0.544L0.257,-0.072L0.243,-0.072L0.118,-0.544C0.123,-0.51 0.125,-0.49 0.125,-0.484L0.125,-0L0.061,-0L0.061,-0.764L0.124,-0.764L0.248,-0.267C0.249,-0.264 0.249,-0.257 0.25,-0.245C0.25,-0.25 0.251,-0.257 0.252,-0.267L0.376,-0.764L0.439,-0.764L0.439,-0Z" style="fill:white;fill-rule:nonzero;"/>
            </g>
            <g transform="matrix(220.33,0,0,220.33,198.275,0)">
                <path d="M0.369,-0L0.302,-0L0.275,-0.17L0.123,-0.17L0.096,-0L0.031,-0L0.031,-0.002L0.167,-0.766L0.234,-0.766L0.369,-0ZM0.266,-0.23L0.199,-0.644L0.132,-0.23L0.266,-0.23Z" style="fill:white;fill-rule:nonzero;"/>
            </g>
            <g transform="matrix(220.33,0,0,220.33,286.386,0)">
                <path d="M0.305,-0L0.061,-0L0.061,-0.764L0.129,-0.764L0.129,-0.06L0.305,-0.06L0.305,-0Z" style="fill:white;fill-rule:nonzero;"/>
            </g>
            <g transform="matrix(220.33,0,0,220.33,360.618,0)">
                <path d="M0.307,-0.704L0.129,-0.704L0.129,-0.414L0.293,-0.414L0.293,-0.353L0.129,-0.353L0.129,-0L0.061,-0L0.061,-0.764L0.307,-0.764L0.307,-0.704Z" style="fill:white;fill-rule:nonzero;"/>
            </g>
            <g transform="matrix(220.33,0,0,220.33,435.496,0)">
                <rect x="0.065" y="-0.764" width="0.068" height="0.764" style="fill:white;fill-rule:nonzero;"/>
            </g>
            <g transform="matrix(220.33,0,0,220.33,479.39,0)">
                <rect x="0.046" y="-0.086" width="0.074" height="0.086" style="fill:white;fill-rule:nonzero;"/>
            </g>
            <g transform="matrix(220.33,0,0,220.33,515.968,0)">
                <path d="M0.531,-0L0.466,-0L0.466,-0.417L0.324,-0.413L0.324,-0L0.26,-0L0.26,-0.417L0.118,-0.413L0.118,-0L0.053,-0L0.053,-0.475L0.118,-0.475L0.118,-0.462C0.144,-0.465 0.169,-0.469 0.194,-0.472C0.225,-0.476 0.251,-0.478 0.271,-0.478C0.291,-0.478 0.306,-0.472 0.315,-0.46C0.342,-0.464 0.369,-0.467 0.396,-0.471C0.432,-0.476 0.459,-0.478 0.477,-0.478C0.513,-0.478 0.531,-0.46 0.531,-0.425L0.531,-0Z" style="fill:white;fill-rule:nonzero;"/>
            </g>
            <g transform="matrix(220.33,0,0,220.33,644.422,0)">
                <path d="M0.322,-0L0.258,-0L0.258,-0.013C0.232,-0.01 0.206,-0.006 0.181,-0.003C0.149,0.001 0.123,0.003 0.104,0.003C0.069,0.003 0.051,-0.015 0.051,-0.05L0.051,-0.223C0.051,-0.26 0.069,-0.278 0.106,-0.278L0.259,-0.278L0.259,-0.421L0.119,-0.421L0.119,-0.34L0.056,-0.34L0.056,-0.42C0.056,-0.457 0.074,-0.475 0.111,-0.475L0.267,-0.475C0.304,-0.475 0.322,-0.457 0.322,-0.42L0.322,-0ZM0.259,-0.059L0.259,-0.227L0.114,-0.227L0.114,-0.056L0.259,-0.059Z" style="fill:white;fill-rule:nonzero;"/>
            </g>
            <g transform="matrix(220.33,0,0,220.33,727.046,0)">
                <path d="M0.32,-0L0.249,-0L0.118,-0.242L0.118,-0L0.053,-0L0.053,-0.764L0.118,-0.764L0.118,-0.279L0.24,-0.475L0.31,-0.475L0.31,-0.473L0.172,-0.263L0.32,-0Z" style="fill:white;fill-rule:nonzero;"/>
            </g>
            <g transform="matrix(220.33,0,0,220.33,800.848,0)">
                <path d="M0.319,-0.055C0.319,-0.018 0.301,-0 0.264,-0L0.108,-0C0.071,-0 0.053,-0.018 0.053,-0.055L0.053,-0.42C0.053,-0.457 0.071,-0.475 0.108,-0.475L0.264,-0.475C0.301,-0.475 0.319,-0.457 0.319,-0.42L0.319,-0.249L0.297,-0.226L0.116,-0.226L0.116,-0.054L0.256,-0.054L0.256,-0.141L0.319,-0.141L0.319,-0.055ZM0.256,-0.278L0.256,-0.421L0.116,-0.421L0.116,-0.278L0.256,-0.278Z" style="fill:white;fill-rule:nonzero;"/>
            </g>
            <g transform="matrix(220.33,0,0,220.33,883.041,0)">
                <path d="M0.309,-0.055C0.309,-0.018 0.291,-0 0.254,-0L0.105,-0C0.068,-0 0.05,-0.018 0.05,-0.055L0.05,-0.163L0.114,-0.163L0.114,-0.056L0.245,-0.056L0.245,-0.151L0.075,-0.29C0.059,-0.303 0.051,-0.32 0.051,-0.341L0.051,-0.42C0.051,-0.457 0.069,-0.475 0.106,-0.475L0.253,-0.475C0.29,-0.475 0.308,-0.457 0.308,-0.42L0.308,-0.325L0.245,-0.325L0.245,-0.419L0.114,-0.419L0.114,-0.336L0.285,-0.197C0.301,-0.184 0.309,-0.167 0.309,-0.145L0.309,-0.055Z" style="fill:white;fill-rule:nonzero;"/>
            </g>
            <g transform="matrix(220.33,0,0,220.33,962.115,0)">
                <path d="M0.247,0.121L0.117,0.121C0.101,0.121 0.088,0.116 0.078,0.106C0.068,0.096 0.063,0.083 0.063,0.067L0.063,-0.71C0.063,-0.726 0.068,-0.739 0.078,-0.749C0.088,-0.759 0.101,-0.764 0.117,-0.764L0.247,-0.764L0.247,-0.704L0.131,-0.704L0.131,0.061L0.247,0.061L0.247,0.121Z" style="fill:white;fill-rule:nonzero;"/>
            </g>
            <g transform="matrix(220.33,0,0,220.33,1026.02,0)">
                <path d="M0.122,-0.579L0.056,-0.579L0.056,-0.661L0.122,-0.661L0.122,-0.579ZM0.121,-0L0.057,-0L0.057,-0.475L0.121,-0.475L0.121,-0Z" style="fill:white;fill-rule:nonzero;"/>
            </g>
            <g transform="matrix(220.33,0,0,220.33,1065.29,0)">
                <path d="M0.224,-0L0.132,-0C0.095,-0 0.077,-0.018 0.077,-0.055L0.077,-0.418L0.02,-0.418L0.02,-0.475L0.077,-0.475L0.077,-0.623L0.141,-0.623L0.141,-0.475L0.224,-0.475L0.224,-0.418L0.141,-0.418L0.141,-0.057L0.224,-0.057L0.224,-0Z" style="fill:white;fill-rule:nonzero;"/>
            </g>
            <g transform="matrix(220.33,0,0,220.33,1121.23,0)">
                <path d="M0.228,0.067C0.228,0.083 0.223,0.096 0.212,0.106C0.202,0.116 0.189,0.121 0.173,0.121L0.043,0.121L0.043,0.061L0.16,0.061L0.16,-0.704L0.043,-0.704L0.043,-0.764L0.173,-0.764C0.189,-0.764 0.202,-0.759 0.212,-0.749C0.223,-0.739 0.228,-0.726 0.228,-0.71L0.228,0.067Z" style="fill:white;fill-rule:nonzero;"/>
            </g>
        </g>
    </g>
    <defs>
        <linearGradient id="_Linear1" x1="0" y1="0" x2="1" y2="0" gradientUnits="userSpaceOnUse" gradientTransform="matrix(501.481,0,0,501.481,42.1961,192.974)"><stop offset="0" style="stop-color:rgb(95,101,197);stop-opacity:1"/><stop offset="0.05" style="stop-color:rgb(216,110,232);stop-opacity:1"/><stop offset="0.07" style="stop-color:rgb(152,101,230);stop-opacity:1"/><stop offset="0.1" style="stop-color:rgb(85,91,227);stop-opacity:1"/><stop offset="0.15" style="stop-color:rgb(53,87,226);stop-opacity:1"/><stop offset="0.16" style="stop-color:rgb(139,158,204);stop-opacity:1"/><stop offset="0.17" style="stop-color:rgb(219,225,183);stop-opacity:1"/><stop offset="0.2" style="stop-color:rgb(252,253,174);stop-opacity:1"/><stop offset="0.26" style="stop-color:rgb(78,222,250);stop-opacity:1"/><stop offset="0.39" style="stop-color:rgb(20,121,169);stop-opacity:1"/><stop offset="0.47" style="stop-color:rgb(52,148,167);stop-opacity:1"/><stop offset="0.53" style="stop-color:rgb(172,250,159);stop-opacity:1"/><stop offset="0.6" style="stop-color:rgb(189,250,161);stop-opacity:1"/><stop offset="0.65" style="stop-color:rgb(249,250,167);stop-opacity:1"/><stop offset="0.68" style="stop-color:rgb(252,247,193);stop-opacity:1"/><stop offset="0.7" style="stop-color:rgb(124,246,226);stop-opacity:1"/><stop offset="0.87" style="stop-color:rgb(45,53,253);stop-opacity:1"/><stop offset="0.96" style="stop-color:rgb(244,124,219);stop-opacity:1"/><stop offset="1" style="stop-color:rgb(242,246,164);stop-opacity:1"/></linearGradient>
    </defs>
</svg>
